<svg width="24" height="24" viewBox="0 0 24 24" fill="none" xmlns="http://www.w3.org/2000/svg">
<path d="M5 10.9412H19M17.6 18C17.9713 18 18.3274 17.8513 18.5899 17.5865C18.8525 17.3217 19 16.9627 19 16.5882V9.52941C19 9.15499 18.8525 8.7959 18.5899 8.53114C18.3274 8.26639 17.9713 8.11765 17.6 8.11765H12.07C11.8359 8.11996 11.6049 8.06302 11.3982 7.95203C11.1915 7.84105 11.0158 7.67956 10.887 7.48235L10.32 6.63529C10.1925 6.4401 10.019 6.27987 9.81495 6.16899C9.61092 6.0581 9.38278 6.00004 9.151 6H6.4C6.0287 6 5.6726 6.14874 5.41005 6.4135C5.1475 6.67825 5 7.03734 5 7.41176V16.5882C5 16.9627 5.1475 17.3217 5.41005 17.5865C5.6726 17.8513 6.0287 18 6.4 18H17.6Z" stroke="#C3C3C3" stroke-linecap="round" stroke-linejoin="round"/>
</svg>
