<svg width="24" height="24" viewBox="0 0 24 24" fill="none" xmlns="http://www.w3.org/2000/svg">
<path d="M19 14.3333L16.5998 11.9331C16.3081 11.6415 15.9125 11.4777 15.5 11.4777C15.0875 11.4777 14.6919 11.6415 14.4002 11.9331L7.33333 19M6.55556 5H17.4444C18.3036 5 19 5.69645 19 6.55556V17.4444C19 18.3036 18.3036 19 17.4444 19H6.55556C5.69645 19 5 18.3036 5 17.4444V6.55556C5 5.69645 5.69645 5 6.55556 5ZM11.2222 9.66667C11.2222 10.5258 10.5258 11.2222 9.66667 11.2222C8.80756 11.2222 8.11111 10.5258 8.11111 9.66667C8.11111 8.80756 8.80756 8.11111 9.66667 8.11111C10.5258 8.11111 11.2222 8.80756 11.2222 9.66667Z" stroke="#C3C3C3" stroke-linecap="round" stroke-linejoin="round"/>
</svg>
