<svg width="24" height="24" viewBox="0 0 24 24" fill="none" xmlns="http://www.w3.org/2000/svg">
<path d="M5 13.5556H7.33333C7.74589 13.5556 8.14155 13.7194 8.43328 14.0112C8.725 14.3029 8.88889 14.6986 8.88889 15.1111V17.4444C8.88889 17.857 8.725 18.2527 8.43328 18.5444C8.14155 18.8361 7.74589 19 7.33333 19H6.55556C6.143 19 5.74733 18.8361 5.45561 18.5444C5.16389 18.2527 5 17.857 5 17.4444V12C5 10.1435 5.7375 8.36301 7.05025 7.05025C8.36301 5.7375 10.1435 5 12 5C13.8565 5 15.637 5.7375 16.9497 7.05025C18.2625 8.36301 19 10.1435 19 12V17.4444C19 17.857 18.8361 18.2527 18.5444 18.5444C18.2527 18.8361 17.857 19 17.4444 19H16.6667C16.2541 19 15.8584 18.8361 15.5667 18.5444C15.275 18.2527 15.1111 17.857 15.1111 17.4444V15.1111C15.1111 14.6986 15.275 14.3029 15.5667 14.0112C15.8584 13.7194 16.2541 13.5556 16.6667 13.5556H19" stroke="#C3C3C3" stroke-linecap="round" stroke-linejoin="round"/>
</svg>
