<svg width="24" height="24" viewBox="0 0 24 24" fill="none" xmlns="http://www.w3.org/2000/svg">
<path d="M9.3 16H7.5C6.30653 16 5.16193 15.5259 4.31802 14.682C3.47411 13.8381 3 12.6935 3 11.5C3 10.3065 3.47411 9.16193 4.31802 8.31802C5.16193 7.47411 6.30653 7 7.5 7H9.3M14.7 7H16.5C17.6935 7 18.8381 7.47411 19.682 8.31802C20.5259 9.16193 21 10.3065 21 11.5C21 12.6935 20.5259 13.8381 19.682 14.682C18.8381 15.5259 17.6935 16 16.5 16H14.7M8.4 11.5H15.6" stroke="#C3C3C3" stroke-linecap="round" stroke-linejoin="round"/>
</svg>
