<svg width="24" height="24" viewBox="0 0 24 24" fill="none" xmlns="http://www.w3.org/2000/svg">
<path d="M16.4 7.6H16.408M8 4H16C18.2091 4 20 5.79086 20 8V16C20 18.2091 18.2091 20 16 20H8C5.79086 20 4 18.2091 4 16V8C4 5.79086 5.79086 4 8 4ZM15.2 11.496C15.2987 12.1618 15.185 12.8418 14.875 13.4392C14.565 14.0367 14.0745 14.5211 13.4733 14.8237C12.8721 15.1263 12.1908 15.2317 11.5262 15.1247C10.8617 15.0178 10.2478 14.7041 9.77187 14.2281C9.29593 13.7522 8.98219 13.1383 8.87525 12.4738C8.76832 11.8092 8.87365 11.1279 9.17626 10.5267C9.47887 9.92548 9.96335 9.43499 10.5608 9.12499C11.1582 8.81499 11.8382 8.70127 12.504 8.8C13.1831 8.90071 13.8119 9.21717 14.2974 9.70265C14.7828 10.1881 15.0993 10.8169 15.2 11.496Z" stroke="#C3C3C3" stroke-linecap="round" stroke-linejoin="round"/>
</svg>
