<svg width="120" height="24" viewBox="0 0 120 24" fill="none" xmlns="http://www.w3.org/2000/svg">
  <path d="M11.6682 5.20101C11.6988 5.14066 11.7462 5.08986 11.805 5.05434C11.8637 5.01882 11.9315 5 12.0006 5C12.0698 5 12.1375 5.01882 12.1963 5.05434C12.255 5.08986 12.3024 5.14066 12.3331 5.20101L13.95 8.39033C14.0565 8.60025 14.2137 8.78186 14.4081 8.91958C14.6026 9.0573 14.8285 9.14701 15.0664 9.18102L18.6822 9.69632C18.7507 9.70599 18.8151 9.73414 18.8681 9.77757C18.921 9.82101 18.9604 9.87801 18.9818 9.94212C19.0032 10.0062 19.0058 10.0749 18.9892 10.1404C18.9726 10.2058 18.9376 10.2654 18.888 10.3125L16.273 12.7923C16.1006 12.9559 15.9716 13.1579 15.8971 13.3809C15.8226 13.6039 15.8048 13.8412 15.8454 14.0724L16.4627 17.5759C16.4748 17.6426 16.4674 17.7113 16.4414 17.774C16.4153 17.8368 16.3717 17.8912 16.3154 17.931C16.2592 17.9708 16.1925 17.9944 16.1232 17.9991C16.0538 18.0038 15.9845 17.9894 15.9231 17.9576L12.6908 16.3026C12.4778 16.1937 12.2408 16.1368 12.0003 16.1368C11.7597 16.1368 11.5228 16.1937 11.3098 16.3026L8.07818 17.9576C8.01682 17.9893 7.94757 18.0035 7.87832 17.9987C7.80906 17.9939 7.74258 17.9703 7.68642 17.9305C7.63027 17.8907 7.58671 17.8364 7.56069 17.7737C7.53467 17.711 7.52723 17.6425 7.53923 17.5759L8.15587 14.073C8.19661 13.8418 8.17896 13.6044 8.10446 13.3812C8.02995 13.1581 7.90082 12.956 7.72821 12.7923L5.11325 10.3132C5.06327 10.2662 5.02785 10.2064 5.01103 10.1408C4.99421 10.0751 4.99667 10.0062 5.01811 9.94184C5.03956 9.87748 5.07914 9.82027 5.13234 9.77674C5.18554 9.73322 5.25023 9.70512 5.31903 9.69564L8.9342 9.18102C9.17236 9.14727 9.39854 9.05768 9.59325 8.91994C9.78797 8.78221 9.94541 8.60046 10.052 8.39033L11.6682 5.20101Z" fill="#DABA05" stroke="#DABA05" stroke-linecap="round" stroke-linejoin="round" />
  <path d="M35.6682 5.20101C35.6988 5.14066 35.7462 5.08986 35.805 5.05434C35.8637 5.01882 35.9315 5 36.0006 5C36.0698 5 36.1375 5.01882 36.1963 5.05434C36.255 5.08986 36.3024 5.14066 36.3331 5.20101L37.95 8.39033C38.0565 8.60025 38.2137 8.78186 38.4081 8.91958C38.6026 9.0573 38.8285 9.14701 39.0664 9.18102L42.6822 9.69632C42.7507 9.70599 42.8151 9.73414 42.8681 9.77757C42.921 9.82101 42.9604 9.87801 42.9818 9.94212C43.0032 10.0062 43.0058 10.0749 42.9892 10.1404C42.9726 10.2058 42.9376 10.2654 42.888 10.3125L40.273 12.7923C40.1006 12.9559 39.9716 13.1579 39.8971 13.3809C39.8226 13.6039 39.8048 13.8412 39.8454 14.0724L40.4627 17.5759C40.4748 17.6426 40.4674 17.7113 40.4414 17.774C40.4153 17.8368 40.3717 17.8912 40.3154 17.931C40.2592 17.9708 40.1925 17.9944 40.1232 17.9991C40.0538 18.0038 39.9845 17.9894 39.9231 17.9576L36.6908 16.3026C36.4778 16.1937 36.2408 16.1368 36.0003 16.1368C35.7597 16.1368 35.5228 16.1937 35.3098 16.3026L32.0782 17.9576C32.0168 17.9893 31.9476 18.0035 31.8783 17.9987C31.8091 17.9939 31.7426 17.9703 31.6864 17.9305C31.6303 17.8907 31.5867 17.8364 31.5607 17.7737C31.5347 17.711 31.5272 17.6425 31.5392 17.5759L32.1559 14.073C32.1966 13.8418 32.179 13.6044 32.1045 13.3812C32.03 13.1581 31.9008 12.956 31.7282 12.7923L29.1132 10.3132C29.0633 10.2662 29.0279 10.2064 29.011 10.1408C28.9942 10.0751 28.9967 10.0062 29.0181 9.94184C29.0396 9.87748 29.0791 9.82027 29.1323 9.77674C29.1855 9.73322 29.2502 9.70512 29.319 9.69564L32.9342 9.18102C33.1724 9.14727 33.3985 9.05768 33.5933 8.91994C33.788 8.78221 33.9454 8.60046 34.052 8.39033L35.6682 5.20101Z" fill="#DABA05" stroke="#DABA05" stroke-linecap="round" stroke-linejoin="round" />
  <path d="M59.6682 5.20101C59.6988 5.14066 59.7462 5.08986 59.805 5.05434C59.8637 5.01882 59.9315 5 60.0006 5C60.0698 5 60.1375 5.01882 60.1963 5.05434C60.255 5.08986 60.3024 5.14066 60.3331 5.20101L61.95 8.39033C62.0565 8.60025 62.2137 8.78186 62.4081 8.91958C62.6026 9.0573 62.8285 9.14701 63.0664 9.18102L66.6822 9.69632C66.7507 9.70599 66.8151 9.73414 66.8681 9.77757C66.921 9.82101 66.9604 9.87801 66.9818 9.94212C67.0032 10.0062 67.0058 10.0749 66.9892 10.1404C66.9726 10.2058 66.9376 10.2654 66.888 10.3125L64.273 12.7923C64.1006 12.9559 63.9716 13.1579 63.8971 13.3809C63.8226 13.6039 63.8048 13.8412 63.8454 14.0724L64.4627 17.5759C64.4748 17.6426 64.4674 17.7113 64.4414 17.774C64.4153 17.8368 64.3717 17.8912 64.3154 17.931C64.2592 17.9708 64.1925 17.9944 64.1232 17.9991C64.0538 18.0038 63.9845 17.9894 63.9231 17.9576L60.6908 16.3026C60.4778 16.1937 60.2408 16.1368 60.0003 16.1368C59.7597 16.1368 59.5228 16.1937 59.3098 16.3026L56.0782 17.9576C56.0168 17.9893 55.9476 18.0035 55.8783 17.9987C55.8091 17.9939 55.7426 17.9703 55.6864 17.9305C55.6303 17.8907 55.5867 17.8364 55.5607 17.7737C55.5347 17.711 55.5272 17.6425 55.5392 17.5759L56.1559 14.073C56.1966 13.8418 56.179 13.6044 56.1045 13.3812C56.03 13.1581 55.9008 12.956 55.7282 12.7923L53.1132 10.3132C53.0633 10.2662 53.0279 10.2064 53.011 10.1408C52.9942 10.0751 52.9967 10.0062 53.0181 9.94184C53.0396 9.87748 53.0791 9.82027 53.1323 9.77674C53.1855 9.73322 53.2502 9.70512 53.319 9.69564L56.9342 9.18102C57.1724 9.14727 57.3985 9.05768 57.5933 8.91994C57.788 8.78221 57.9454 8.60046 58.052 8.39033L59.6682 5.20101Z" fill="#DABA05" stroke="#DABA05" stroke-linecap="round" stroke-linejoin="round" />
  <path d="M83.6682 5.20101C83.6988 5.14066 83.7462 5.08986 83.805 5.05434C83.8637 5.01882 83.9315 5 84.0006 5C84.0698 5 84.1375 5.01882 84.1963 5.05434C84.255 5.08986 84.3024 5.14066 84.3331 5.20101L85.95 8.39033C86.0565 8.60025 86.2137 8.78186 86.4081 8.91958C86.6026 9.0573 86.8285 9.14701 87.0664 9.18102L90.6822 9.69632C90.7507 9.70599 90.8151 9.73414 90.8681 9.77757C90.921 9.82101 90.9604 9.87801 90.9818 9.94212C91.0032 10.0062 91.0058 10.0749 90.9892 10.1404C90.9726 10.2058 90.9376 10.2654 90.888 10.3125L88.273 12.7923C88.1006 12.9559 87.9716 13.1579 87.8971 13.3809C87.8226 13.6039 87.8048 13.8412 87.8454 14.0724L88.4627 17.5759C88.4748 17.6426 88.4674 17.7113 88.4414 17.774C88.4153 17.8368 88.3717 17.8912 88.3154 17.931C88.2592 17.9708 88.1925 17.9944 88.1232 17.9991C88.0538 18.0038 87.9845 17.9894 87.9231 17.9576L84.6908 16.3026C84.4778 16.1937 84.2408 16.1368 84.0003 16.1368C83.7597 16.1368 83.5228 16.1937 83.3098 16.3026L80.0782 17.9576C80.0168 17.9893 79.9476 18.0035 79.8783 17.9987C79.8091 17.9939 79.7426 17.9703 79.6864 17.9305C79.6303 17.8907 79.5867 17.8364 79.5607 17.7737C79.5347 17.711 79.5272 17.6425 79.5392 17.5759L80.1559 14.073C80.1966 13.8418 80.179 13.6044 80.1045 13.3812C80.03 13.1581 79.9008 12.956 79.7282 12.7923L77.1132 10.3132C77.0633 10.2662 77.0279 10.2064 77.011 10.1408C76.9942 10.0751 76.9967 10.0062 77.0181 9.94184C77.0396 9.87748 77.0791 9.82027 77.1323 9.77674C77.1855 9.73322 77.2502 9.70512 77.319 9.69564L80.9342 9.18102C81.1724 9.14727 81.3985 9.05768 81.5933 8.91994C81.788 8.78221 81.9454 8.60046 82.052 8.39033L83.6682 5.20101Z" fill="#DABA05" stroke="#DABA05" stroke-linecap="round" stroke-linejoin="round" />
  <path d="M107.668 5.20101C107.699 5.14066 107.746 5.08986 107.805 5.05434C107.864 5.01882 107.931 5 108.001 5C108.07 5 108.138 5.01882 108.196 5.05434C108.255 5.08986 108.302 5.14066 108.333 5.20101L109.95 8.39033C110.056 8.60025 110.214 8.78186 110.408 8.91958C110.603 9.0573 110.828 9.14701 111.066 9.18102L114.682 9.69632C114.751 9.70599 114.815 9.73414 114.868 9.77757C114.921 9.82101 114.96 9.87801 114.982 9.94212C115.003 10.0062 115.006 10.0749 114.989 10.1404C114.973 10.2058 114.938 10.2654 114.888 10.3125L112.273 12.7923C112.101 12.9559 111.972 13.1579 111.897 13.3809C111.823 13.6039 111.805 13.8412 111.845 14.0724L112.463 17.5759C112.475 17.6426 112.467 17.7113 112.441 17.774C112.415 17.8368 112.372 17.8912 112.315 17.931C112.259 17.9708 112.193 17.9944 112.123 17.9991C112.054 18.0038 111.984 17.9894 111.923 17.9576L108.691 16.3026C108.478 16.1937 108.241 16.1368 108 16.1368C107.76 16.1368 107.523 16.1937 107.31 16.3026L104.078 17.9576C104.017 17.9893 103.948 18.0035 103.878 17.9987C103.809 17.9939 103.743 17.9703 103.686 17.9305C103.63 17.8907 103.587 17.8364 103.561 17.7737C103.535 17.711 103.527 17.6425 103.539 17.5759L104.156 14.073C104.197 13.8418 104.179 13.6044 104.104 13.3812C104.03 13.1581 103.901 12.956 103.728 12.7923L101.113 10.3132C101.063 10.2662 101.028 10.2064 101.011 10.1408C100.994 10.0751 100.997 10.0062 101.018 9.94184C101.04 9.87748 101.079 9.82027 101.132 9.77674C101.186 9.73322 101.25 9.70512 101.319 9.69564L104.934 9.18102C105.172 9.14727 105.399 9.05768 105.593 8.91994C105.788 8.78221 105.945 8.60046 106.052 8.39033L107.668 5.20101Z" fill="#DABA05" stroke="#DABA05" stroke-linecap="round" stroke-linejoin="round" />
</svg>

