<svg width="166" height="38" viewBox="0 0 166 38" fill="none" xmlns="http://www.w3.org/2000/svg">
<path d="M27.9856 13.0751C27.9856 13.5397 27.609 13.9162 27.1445 13.9162C26.68 13.9162 26.3034 13.5397 26.3034 13.0751C26.3034 12.6106 26.68 12.234 27.1445 12.234C27.609 12.234 27.9856 12.6106 27.9856 13.0751Z" fill="#39C1BD"/>
<path d="M30.1265 20.4156C30.1265 20.9223 29.7157 21.3331 29.209 21.3331C28.7022 21.3331 28.2914 20.9223 28.2914 20.4156C28.2914 19.9088 28.7022 19.498 29.209 19.498C29.7157 19.498 30.1265 19.9088 30.1265 20.4156Z" fill="#39C1BD"/>
<path d="M5.60255 31.5808H11.1079C12.0254 31.5808 12.3466 31.2826 13.0195 29.9369L22.4713 12.5797L25.6358 6.76856C25.7487 6.56536 25.9976 6.18817 26.1805 6.12594C25.5967 6.14593 21.6225 6.13018 19.5188 6.11862C18.716 6.11421 17.8672 6.40917 17.2249 7.57141L4.83792 29.5163C4.45287 30.1646 4.37918 31.5808 5.60255 31.5808Z" fill="url(#paint0_linear_1671_28402)"/>
<path fill-rule="evenodd" clip-rule="evenodd" d="M26.2476 6.11862C26.2646 6.12146 26.2404 6.12389 26.1805 6.12594C25.9976 6.18817 25.7487 6.56536 25.6358 6.76856L22.4713 12.5797C22.5546 12.4268 22.6532 12.567 22.6921 12.6562L30.7274 27.1077L32.9381 31.0838C33.1522 31.4814 32.8744 31.5808 32.7087 31.5808H39.5904C40.7526 31.5502 41.0814 30.5103 40.5844 29.7074L39.1071 27.1077L33.5772 17.3764C33.4712 17.5914 33.2498 17.7394 32.9939 17.7394C32.6349 17.7394 32.344 17.4484 32.344 17.0894C32.344 16.7305 32.6349 16.4395 32.9939 16.4395C33.0114 16.4395 33.0288 16.4402 33.046 16.4416L29.0593 9.42598C28.9963 9.50626 28.8984 9.55784 28.7884 9.55784C28.5984 9.55784 28.4443 9.40378 28.4443 9.21375C28.4443 9.03853 28.5753 8.8939 28.7447 8.87242L27.8533 7.30379C27.2819 6.30372 26.5824 6.09761 26.246 6.11838C26.2465 6.11845 26.247 6.11853 26.2476 6.11862ZM25.3858 11.6988C25.7659 11.6988 26.074 11.3907 26.074 11.0106C26.074 10.6306 25.7659 10.3225 25.3858 10.3225C25.0058 10.3225 24.6977 10.6306 24.6977 11.0106C24.6977 11.3907 25.0058 11.6988 25.3858 11.6988ZM27.1445 13.9162C27.609 13.9162 27.9856 13.5397 27.9856 13.0751C27.9856 12.6106 27.609 12.234 27.1445 12.234C26.68 12.234 26.3034 12.6106 26.3034 13.0751C26.3034 13.5397 26.68 13.9162 27.1445 13.9162ZM29.209 21.3331C29.7157 21.3331 30.1265 20.9223 30.1265 20.4156C30.1265 19.9088 29.7157 19.498 29.209 19.498C28.7022 19.498 28.2914 19.9088 28.2914 20.4156C28.2914 20.9223 28.7022 21.3331 29.209 21.3331ZM27.9856 16.4395C28.2389 16.4395 28.4443 16.2341 28.4443 15.9807C28.4443 15.7274 28.2389 15.522 27.9856 15.522C27.7322 15.522 27.5268 15.7274 27.5268 15.9807C27.5268 16.2341 27.7322 16.4395 27.9856 16.4395Z" fill="url(#paint1_linear_1671_28402)"/>
<path d="M26.074 11.0106C26.074 11.3907 25.7659 11.6988 25.3858 11.6988C25.0058 11.6988 24.6977 11.3907 24.6977 11.0106C24.6977 10.6306 25.0058 10.3225 25.3858 10.3225C25.7659 10.3225 26.074 10.6306 26.074 11.0106Z" fill="#39C1BD"/>
<path d="M32.344 17.0894C32.344 17.4484 32.6349 17.7394 32.9939 17.7394C33.2498 17.7394 33.4712 17.5914 33.5772 17.3764L33.046 16.4416C33.0288 16.4402 33.0114 16.4395 32.9939 16.4395C32.6349 16.4395 32.344 16.7305 32.344 17.0894Z" fill="#39C1BD"/>
<path d="M28.4443 9.21375C28.4443 9.40378 28.5984 9.55784 28.7884 9.55784C28.8984 9.55784 28.9963 9.50626 29.0593 9.42598L28.7447 8.87242C28.5753 8.8939 28.4443 9.03853 28.4443 9.21375Z" fill="#39C1BD"/>
<path d="M28.4443 15.9807C28.4443 16.2341 28.2389 16.4395 27.9856 16.4395C27.7322 16.4395 27.5268 16.2341 27.5268 15.9807C27.5268 15.7274 27.7322 15.522 27.9856 15.522C28.2389 15.522 28.4443 15.7274 28.4443 15.9807Z" fill="#39C1BD"/>
<path d="M39.5904 31.5808C40.7526 31.5502 41.0814 30.5103 40.5844 29.7075L39.1071 27.1077H30.7274H23.3038C22.9062 27.1077 22.6538 27.3881 22.5774 27.5283L20.7805 30.7015C20.2606 31.4661 20.5639 31.6063 20.7805 31.5808H32.7087H39.5904Z" fill="url(#paint2_linear_1671_28402)" fill-opacity="0.72"/>
<path d="M28.5591 8.98443L26.0741 7.48113M25.4624 7.11108L26.0741 7.48113M26.0741 7.48113L25.5006 10.3608M24.736 11.2019L23.092 11.4312M26.4564 13.534L25.8045 14.2221M24.3919 15.7132L25.8045 14.2221M25.8045 14.2221L23.245 13.6487M28.6356 9.51967L27.6416 12.4253L29.9737 11.0489M27.4887 13.8398L27.8327 15.5602M32.3441 17.0513L28.2151 16.3631L28.865 19.5746M28.4062 20.798L27.5269 21.3332M29.9737 20.9127L33.1087 23.2448M33.1087 23.2448L35.3644 20.5303M33.1087 23.2448V27.1062" stroke="#39C1BD" stroke-width="0.076463"/>
<path d="M63.4609 12.8555L58.8203 27H55.082L61.4219 9.9375H63.8008L63.4609 12.8555ZM67.3164 27L62.6641 12.8555L62.2891 9.9375H64.6914L71.0664 27H67.3164ZM67.1055 20.6484V23.4023H58.0938V20.6484H67.1055ZM76 9V27H72.6133V9H76ZM85 14.3203V16.7109H77.6172V14.3203H85ZM79.4453 11.1914H82.8203V23.1797C82.8203 23.5469 82.8672 23.8281 82.9609 24.0234C83.0625 24.2188 83.2109 24.3555 83.4062 24.4336C83.6016 24.5039 83.8477 24.5391 84.1445 24.5391C84.3555 24.5391 84.543 24.5312 84.707 24.5156C84.8789 24.4922 85.0234 24.4688 85.1406 24.4453L85.1523 26.9297C84.8633 27.0234 84.5508 27.0977 84.2148 27.1523C83.8789 27.207 83.5078 27.2344 83.1016 27.2344C82.3594 27.2344 81.7109 27.1133 81.1562 26.8711C80.6094 26.6211 80.1875 26.2227 79.8906 25.6758C79.5938 25.1289 79.4453 24.4102 79.4453 23.5195V11.1914ZM92.7578 27.2344C91.7734 27.2344 90.8906 27.0781 90.1094 26.7656C89.3281 26.4453 88.6641 26.0039 88.1172 25.4414C87.5781 24.8789 87.1641 24.2266 86.875 23.4844C86.5859 22.7344 86.4414 21.9375 86.4414 21.0938V20.625C86.4414 19.6641 86.5781 18.7852 86.8516 17.9883C87.125 17.1914 87.5156 16.5 88.0234 15.9141C88.5391 15.3281 89.1641 14.8789 89.8984 14.5664C90.6328 14.2461 91.4609 14.0859 92.3828 14.0859C93.2812 14.0859 94.0781 14.2344 94.7734 14.5312C95.4688 14.8281 96.0508 15.25 96.5195 15.7969C96.9961 16.3438 97.3555 17 97.5977 17.7656C97.8398 18.5234 97.9609 19.3672 97.9609 20.2969V21.7031H87.8828V19.4531H94.6445V19.1953C94.6445 18.7266 94.5586 18.3086 94.3867 17.9414C94.2227 17.5664 93.9727 17.2695 93.6367 17.0508C93.3008 16.832 92.8711 16.7227 92.3477 16.7227C91.9023 16.7227 91.5195 16.8203 91.1992 17.0156C90.8789 17.2109 90.6172 17.4844 90.4141 17.8359C90.2188 18.1875 90.0703 18.6016 89.9688 19.0781C89.875 19.5469 89.8281 20.0625 89.8281 20.625V21.0938C89.8281 21.6016 89.8984 22.0703 90.0391 22.5C90.1875 22.9297 90.3945 23.3008 90.6602 23.6133C90.9336 23.9258 91.2617 24.168 91.6445 24.3398C92.0352 24.5117 92.4766 24.5977 92.9688 24.5977C93.5781 24.5977 94.1445 24.4805 94.668 24.2461C95.1992 24.0039 95.6562 23.6406 96.0391 23.1562L97.6797 24.9375C97.4141 25.3203 97.0508 25.6875 96.5898 26.0391C96.1367 26.3906 95.5898 26.6797 94.9492 26.9062C94.3086 27.125 93.5781 27.2344 92.7578 27.2344ZM103.258 17.0859V27H99.8828V14.3203H103.059L103.258 17.0859ZM107.078 14.2383L107.02 17.3672C106.855 17.3438 106.656 17.3242 106.422 17.3086C106.195 17.2852 105.988 17.2734 105.801 17.2734C105.324 17.2734 104.91 17.3359 104.559 17.4609C104.215 17.5781 103.926 17.7539 103.691 17.9883C103.465 18.2227 103.293 18.5078 103.176 18.8438C103.066 19.1797 103.004 19.5625 102.988 19.9922L102.309 19.7812C102.309 18.9609 102.391 18.207 102.555 17.5195C102.719 16.8242 102.957 16.2188 103.27 15.7031C103.59 15.1875 103.98 14.7891 104.441 14.5078C104.902 14.2266 105.43 14.0859 106.023 14.0859C106.211 14.0859 106.402 14.1016 106.598 14.1328C106.793 14.1562 106.953 14.1914 107.078 14.2383ZM112.234 9V27H108.848V9H112.234ZM121.867 24.1406V18.4922C121.867 18.0859 121.801 17.7383 121.668 17.4492C121.535 17.1523 121.328 16.9219 121.047 16.7578C120.773 16.5938 120.418 16.5117 119.98 16.5117C119.605 16.5117 119.281 16.5781 119.008 16.7109C118.734 16.8359 118.523 17.0195 118.375 17.2617C118.227 17.4961 118.152 17.7734 118.152 18.0938H114.777C114.777 17.5547 114.902 17.043 115.152 16.5586C115.402 16.0742 115.766 15.6484 116.242 15.2812C116.719 14.9062 117.285 14.6133 117.941 14.4023C118.605 14.1914 119.348 14.0859 120.168 14.0859C121.152 14.0859 122.027 14.25 122.793 14.5781C123.559 14.9062 124.16 15.3984 124.598 16.0547C125.043 16.7109 125.266 17.5312 125.266 18.5156V23.9414C125.266 24.6367 125.309 25.207 125.395 25.6523C125.48 26.0898 125.605 26.4727 125.77 26.8008V27H122.359C122.195 26.6562 122.07 26.2266 121.984 25.7109C121.906 25.1875 121.867 24.6641 121.867 24.1406ZM122.312 19.2773L122.336 21.1875H120.449C120.004 21.1875 119.617 21.2383 119.289 21.3398C118.961 21.4414 118.691 21.5859 118.48 21.7734C118.27 21.9531 118.113 22.1641 118.012 22.4062C117.918 22.6484 117.871 22.9141 117.871 23.2031C117.871 23.4922 117.938 23.7539 118.07 23.9883C118.203 24.2148 118.395 24.3945 118.645 24.5273C118.895 24.6523 119.188 24.7148 119.523 24.7148C120.031 24.7148 120.473 24.6133 120.848 24.4102C121.223 24.207 121.512 23.957 121.715 23.6602C121.926 23.3633 122.035 23.082 122.043 22.8164L122.934 24.2461C122.809 24.5664 122.637 24.8984 122.418 25.2422C122.207 25.5859 121.938 25.9102 121.609 26.2148C121.281 26.5117 120.887 26.7578 120.426 26.9531C119.965 27.1406 119.418 27.2344 118.785 27.2344C117.98 27.2344 117.25 27.0742 116.594 26.7539C115.945 26.4258 115.43 25.9766 115.047 25.4062C114.672 24.8281 114.484 24.1719 114.484 23.4375C114.484 22.7734 114.609 22.1836 114.859 21.668C115.109 21.1523 115.477 20.7188 115.961 20.3672C116.453 20.0078 117.066 19.7383 117.801 19.5586C118.535 19.3711 119.387 19.2773 120.355 19.2773H122.312ZM131.172 17.0273V27H127.797V14.3203H130.961L131.172 17.0273ZM130.68 20.2148H129.766C129.766 19.2773 129.887 18.4336 130.129 17.6836C130.371 16.9258 130.711 16.2812 131.148 15.75C131.586 15.2109 132.105 14.8008 132.707 14.5195C133.316 14.2305 133.996 14.0859 134.746 14.0859C135.34 14.0859 135.883 14.1719 136.375 14.3438C136.867 14.5156 137.289 14.7891 137.641 15.1641C138 15.5391 138.273 16.0352 138.461 16.6523C138.656 17.2695 138.754 18.0234 138.754 18.9141V27H135.355V18.9023C135.355 18.3398 135.277 17.9023 135.121 17.5898C134.965 17.2773 134.734 17.0586 134.43 16.9336C134.133 16.8008 133.766 16.7344 133.328 16.7344C132.875 16.7344 132.48 16.8242 132.145 17.0039C131.816 17.1836 131.543 17.4336 131.324 17.7539C131.113 18.0664 130.953 18.4336 130.844 18.8555C130.734 19.2773 130.68 19.7305 130.68 20.2148ZM148.809 24.2344V9H152.207V27H149.148L148.809 24.2344ZM140.793 20.8125V20.5664C140.793 19.5977 140.902 18.7188 141.121 17.9297C141.34 17.1328 141.66 16.4492 142.082 15.8789C142.504 15.3086 143.023 14.8672 143.641 14.5547C144.258 14.2422 144.961 14.0859 145.75 14.0859C146.492 14.0859 147.141 14.2422 147.695 14.5547C148.258 14.8672 148.734 15.3125 149.125 15.8906C149.523 16.4609 149.844 17.1367 150.086 17.918C150.328 18.6914 150.504 19.5391 150.613 20.4609V21C150.504 21.8828 150.328 22.7031 150.086 23.4609C149.844 24.2188 149.523 24.8828 149.125 25.4531C148.734 26.0156 148.258 26.4531 147.695 26.7656C147.133 27.0781 146.477 27.2344 145.727 27.2344C144.938 27.2344 144.234 27.0742 143.617 26.7539C143.008 26.4336 142.492 25.9844 142.07 25.4062C141.656 24.8281 141.34 24.1484 141.121 23.3672C140.902 22.5859 140.793 21.7344 140.793 20.8125ZM144.168 20.5664V20.8125C144.168 21.3359 144.207 21.8242 144.285 22.2773C144.371 22.7305 144.508 23.1328 144.695 23.4844C144.891 23.8281 145.141 24.0977 145.445 24.293C145.758 24.4805 146.137 24.5742 146.582 24.5742C147.16 24.5742 147.637 24.4453 148.012 24.1875C148.387 23.9219 148.672 23.5586 148.867 23.0977C149.07 22.6367 149.188 22.1055 149.219 21.5039V19.9688C149.195 19.4766 149.125 19.0352 149.008 18.6445C148.898 18.2461 148.734 17.9062 148.516 17.625C148.305 17.3438 148.039 17.125 147.719 16.9688C147.406 16.8125 147.035 16.7344 146.605 16.7344C146.168 16.7344 145.793 16.8359 145.48 17.0391C145.168 17.2344 144.914 17.5039 144.719 17.8477C144.531 18.1914 144.391 18.5977 144.297 19.0664C144.211 19.5273 144.168 20.0273 144.168 20.5664ZM161.699 23.4961C161.699 23.2539 161.629 23.0352 161.488 22.8398C161.348 22.6445 161.086 22.4648 160.703 22.3008C160.328 22.1289 159.785 21.9727 159.074 21.832C158.434 21.6914 157.836 21.5156 157.281 21.3047C156.734 21.0859 156.258 20.8242 155.852 20.5195C155.453 20.2148 155.141 19.8555 154.914 19.4414C154.688 19.0195 154.574 18.5391 154.574 18C154.574 17.4688 154.688 16.9688 154.914 16.5C155.148 16.0312 155.48 15.6172 155.91 15.2578C156.348 14.8906 156.879 14.6055 157.504 14.4023C158.137 14.1914 158.848 14.0859 159.637 14.0859C160.738 14.0859 161.684 14.2617 162.473 14.6133C163.27 14.9648 163.879 15.4492 164.301 16.0664C164.73 16.6758 164.945 17.3711 164.945 18.1523H161.57C161.57 17.8242 161.5 17.5312 161.359 17.2734C161.227 17.0078 161.016 16.8008 160.727 16.6523C160.445 16.4961 160.078 16.418 159.625 16.418C159.25 16.418 158.926 16.4844 158.652 16.6172C158.379 16.7422 158.168 16.9141 158.02 17.1328C157.879 17.3438 157.809 17.5781 157.809 17.8359C157.809 18.0312 157.848 18.207 157.926 18.3633C158.012 18.5117 158.148 18.6484 158.336 18.7734C158.523 18.8984 158.766 19.0156 159.062 19.125C159.367 19.2266 159.742 19.3203 160.188 19.4062C161.102 19.5938 161.918 19.8398 162.637 20.1445C163.355 20.4414 163.926 20.8477 164.348 21.3633C164.77 21.8711 164.98 22.5391 164.98 23.3672C164.98 23.9297 164.855 24.4453 164.605 24.9141C164.355 25.3828 163.996 25.793 163.527 26.1445C163.059 26.4883 162.496 26.7578 161.84 26.9531C161.191 27.1406 160.461 27.2344 159.648 27.2344C158.469 27.2344 157.469 27.0234 156.648 26.6016C155.836 26.1797 155.219 25.6445 154.797 24.9961C154.383 24.3398 154.176 23.668 154.176 22.9805H157.375C157.391 23.4414 157.508 23.8125 157.727 24.0938C157.953 24.375 158.238 24.5781 158.582 24.7031C158.934 24.8281 159.312 24.8906 159.719 24.8906C160.156 24.8906 160.52 24.832 160.809 24.7148C161.098 24.5898 161.316 24.4258 161.465 24.2227C161.621 24.0117 161.699 23.7695 161.699 23.4961Z" fill="#FAFAFA"/>
<defs>
<linearGradient id="paint0_linear_1671_28402" x1="22.6982" y1="6.117" x2="8.33457" y2="31.5792" gradientUnits="userSpaceOnUse">
<stop stop-color="#1F486C"/>
<stop offset="1" stop-color="#1E3A60"/>
</linearGradient>
<linearGradient id="paint1_linear_1671_28402" x1="22.6982" y1="6.117" x2="36.97" y2="31.5792" gradientUnits="userSpaceOnUse">
<stop stop-color="#2A6C96"/>
<stop offset="0.465" stop-color="#3899AC"/>
<stop offset="1" stop-color="#5DD5AF"/>
</linearGradient>
<linearGradient id="paint2_linear_1671_28402" x1="20.4934" y1="29.3457" x2="40.8086" y2="29.3457" gradientUnits="userSpaceOnUse">
<stop stop-color="#3DA9B0"/>
<stop offset="1" stop-color="#64DAB2"/>
</linearGradient>
</defs>
</svg>
