<svg width="216" height="142" viewBox="0 0 216 142" fill="none" xmlns="http://www.w3.org/2000/svg">
  <path d="M0 100.5C0 98.2909 1.79086 96.5 4 96.5H16.4444C18.6536 96.5 20.4444 98.2909 20.4444 100.5V120.5H0V100.5Z" fill="#565656" />
  <path d="M24.4444 82.5C24.4444 80.2909 26.2353 78.5 28.4444 78.5H40.8889C43.098 78.5 44.8889 80.2909 44.8889 82.5V120.5H24.4444V82.5Z" fill="#565656" />
  <path d="M48.8889 40.5C48.8889 38.2909 50.6797 36.5 52.8889 36.5H65.3333C67.5425 36.5 69.3333 38.2909 69.3333 40.5V120.5H48.8889V40.5Z" fill="#565656" />
  <path d="M73.3333 14.5C73.3333 12.2909 75.1242 10.5 77.3333 10.5H89.7778C91.9869 10.5 93.7778 12.2909 93.7778 14.5V120.5H73.3333V14.5Z" fill="#565656" />
  <path d="M97.7778 4.5C97.7778 2.29086 99.5686 0.5 101.778 0.5H114.222C116.431 0.5 118.222 2.29086 118.222 4.5V120.5H97.7778V4.5Z" fill="#0C8CE9" />
  <path d="M122.222 32.5C122.222 30.2909 124.013 28.5 126.222 28.5H138.667C140.876 28.5 142.667 30.2909 142.667 32.5V120.5H122.222V32.5Z" fill="#565656" />
  <path d="M146.667 72.5C146.667 70.2909 148.458 68.5 150.667 68.5H163.111C165.32 68.5 167.111 70.2909 167.111 72.5V120.5H146.667V72.5Z" fill="#565656" />
  <path d="M171.111 100.5C171.111 98.2909 172.902 96.5 175.111 96.5H187.556C189.765 96.5 191.556 98.2909 191.556 100.5V120.5H171.111V100.5Z" fill="#565656" />
  <path d="M195.556 112.5C195.556 110.291 197.346 108.5 199.556 108.5H212C214.209 108.5 216 110.291 216 112.5V120.5H195.556V112.5Z" fill="#565656" />
  <path d="M3.94922 127.586V129.373H3.07031V127.586H3.94922ZM3.84375 137.154V138.719H2.9707V137.154H3.84375ZM5.01562 135.303C5.01562 135.068 4.96289 134.857 4.85742 134.67C4.75195 134.482 4.57812 134.311 4.33594 134.154C4.09375 133.998 3.76953 133.854 3.36328 133.721C2.87109 133.568 2.44531 133.383 2.08594 133.164C1.73047 132.945 1.45508 132.674 1.25977 132.35C1.06836 132.025 0.972656 131.633 0.972656 131.172C0.972656 130.691 1.07617 130.277 1.2832 129.93C1.49023 129.582 1.7832 129.314 2.16211 129.127C2.54102 128.939 2.98633 128.846 3.49805 128.846C3.89648 128.846 4.25195 128.906 4.56445 129.027C4.87695 129.145 5.14062 129.32 5.35547 129.555C5.57422 129.789 5.74023 130.076 5.85352 130.416C5.9707 130.756 6.0293 131.148 6.0293 131.594H4.95117C4.95117 131.332 4.91992 131.092 4.85742 130.873C4.79492 130.654 4.70117 130.465 4.57617 130.305C4.45117 130.141 4.29883 130.016 4.11914 129.93C3.93945 129.84 3.73242 129.795 3.49805 129.795C3.16992 129.795 2.89844 129.852 2.68359 129.965C2.47266 130.078 2.31641 130.238 2.21484 130.445C2.11328 130.648 2.0625 130.885 2.0625 131.154C2.0625 131.404 2.11328 131.623 2.21484 131.811C2.31641 131.998 2.48828 132.168 2.73047 132.32C2.97656 132.469 3.31445 132.615 3.74414 132.76C4.24805 132.92 4.67578 133.109 5.02734 133.328C5.37891 133.543 5.64648 133.809 5.83008 134.125C6.01367 134.438 6.10547 134.826 6.10547 135.291C6.10547 135.795 5.99219 136.221 5.76562 136.568C5.53906 136.912 5.2207 137.174 4.81055 137.354C4.40039 137.533 3.91992 137.623 3.36914 137.623C3.03711 137.623 2.70898 137.578 2.38477 137.488C2.06055 137.398 1.76758 137.252 1.50586 137.049C1.24414 136.842 1.03516 136.57 0.878906 136.234C0.722656 135.895 0.644531 135.479 0.644531 134.986H1.73438C1.73438 135.318 1.78125 135.594 1.875 135.812C1.97266 136.027 2.10156 136.199 2.26172 136.328C2.42188 136.453 2.59766 136.543 2.78906 136.598C2.98438 136.648 3.17773 136.674 3.36914 136.674C3.7207 136.674 4.01758 136.619 4.25977 136.51C4.50586 136.396 4.69336 136.236 4.82227 136.029C4.95117 135.822 5.01562 135.58 5.01562 135.303ZM13.2246 134.629V135.52H7.06055V134.881L10.8809 128.969H11.7656L10.8164 130.68L8.29102 134.629H13.2246ZM12.0352 128.969V137.5H10.9512V128.969H12.0352ZM19.7988 136.609V137.5H14.2148V136.721L17.0098 133.609C17.3535 133.227 17.6191 132.902 17.8066 132.637C17.998 132.367 18.1309 132.127 18.2051 131.916C18.2832 131.701 18.3223 131.482 18.3223 131.26C18.3223 130.979 18.2637 130.725 18.1465 130.498C18.0332 130.268 17.8652 130.084 17.6426 129.947C17.4199 129.811 17.1504 129.742 16.834 129.742C16.4551 129.742 16.1387 129.816 15.8848 129.965C15.6348 130.109 15.4473 130.312 15.3223 130.574C15.1973 130.836 15.1348 131.137 15.1348 131.477H14.0508C14.0508 130.996 14.1562 130.557 14.3672 130.158C14.5781 129.76 14.8906 129.443 15.3047 129.209C15.7188 128.971 16.2285 128.852 16.834 128.852C17.373 128.852 17.834 128.947 18.2168 129.139C18.5996 129.326 18.8926 129.592 19.0957 129.936C19.3027 130.275 19.4062 130.674 19.4062 131.131C19.4062 131.381 19.3633 131.635 19.2773 131.893C19.1953 132.146 19.0801 132.4 18.9316 132.654C18.7871 132.908 18.6172 133.158 18.4219 133.404C18.2305 133.65 18.0254 133.893 17.8066 134.131L15.5215 136.609H19.7988ZM22.0605 136.211V137.084C22.0605 137.439 21.9707 137.814 21.791 138.209C21.6113 138.607 21.3594 138.939 21.0352 139.205L20.4199 138.777C20.5449 138.605 20.6504 138.43 20.7363 138.25C20.8223 138.074 20.8867 137.891 20.9297 137.699C20.9766 137.512 21 137.312 21 137.102V136.211H22.0605ZM28.916 136.609V137.5H23.332V136.721L26.127 133.609C26.4707 133.227 26.7363 132.902 26.9238 132.637C27.1152 132.367 27.248 132.127 27.3223 131.916C27.4004 131.701 27.4395 131.482 27.4395 131.26C27.4395 130.979 27.3809 130.725 27.2637 130.498C27.1504 130.268 26.9824 130.084 26.7598 129.947C26.5371 129.811 26.2676 129.742 25.9512 129.742C25.5723 129.742 25.2559 129.816 25.002 129.965C24.752 130.109 24.5645 130.312 24.4395 130.574C24.3145 130.836 24.252 131.137 24.252 131.477H23.168C23.168 130.996 23.2734 130.557 23.4844 130.158C23.6953 129.76 24.0078 129.443 24.4219 129.209C24.8359 128.971 25.3457 128.852 25.9512 128.852C26.4902 128.852 26.9512 128.947 27.334 129.139C27.7168 129.326 28.0098 129.592 28.2129 129.936C28.4199 130.275 28.5234 130.674 28.5234 131.131C28.5234 131.381 28.4805 131.635 28.3945 131.893C28.3125 132.146 28.1973 132.4 28.0488 132.654C27.9043 132.908 27.7344 133.158 27.5391 133.404C27.3477 133.65 27.1426 133.893 26.9238 134.131L24.6387 136.609H28.916ZM35.8418 134.629V135.52H29.6777V134.881L33.498 128.969H34.3828L33.4336 130.68L30.9082 134.629H35.8418ZM34.6523 128.969V137.5H33.5684V128.969H34.6523ZM42.1816 132.555V133.855C42.1816 134.555 42.1191 135.145 41.9941 135.625C41.8691 136.105 41.6895 136.492 41.4551 136.785C41.2207 137.078 40.9375 137.291 40.6055 137.424C40.2773 137.553 39.9062 137.617 39.4922 137.617C39.1641 137.617 38.8613 137.576 38.584 137.494C38.3066 137.412 38.0566 137.281 37.834 137.102C37.6152 136.918 37.4277 136.68 37.2715 136.387C37.1152 136.094 36.9961 135.738 36.9141 135.32C36.832 134.902 36.791 134.414 36.791 133.855V132.555C36.791 131.855 36.8535 131.27 36.9785 130.797C37.1074 130.324 37.2891 129.945 37.5234 129.66C37.7578 129.371 38.0391 129.164 38.3672 129.039C38.6992 128.914 39.0703 128.852 39.4805 128.852C39.8125 128.852 40.1172 128.893 40.3945 128.975C40.6758 129.053 40.9258 129.18 41.1445 129.355C41.3633 129.527 41.5488 129.758 41.7012 130.047C41.8574 130.332 41.9766 130.682 42.0586 131.096C42.1406 131.51 42.1816 131.996 42.1816 132.555ZM41.0918 134.031V132.373C41.0918 131.99 41.0684 131.654 41.0215 131.365C40.9785 131.072 40.9141 130.822 40.8281 130.615C40.7422 130.408 40.6328 130.24 40.5 130.111C40.3711 129.982 40.2207 129.889 40.0488 129.83C39.8809 129.768 39.6914 129.736 39.4805 129.736C39.2227 129.736 38.9941 129.785 38.7949 129.883C38.5957 129.977 38.4277 130.127 38.291 130.334C38.1582 130.541 38.0566 130.812 37.9863 131.148C37.916 131.484 37.8809 131.893 37.8809 132.373V134.031C37.8809 134.414 37.9023 134.752 37.9453 135.045C37.9922 135.338 38.0605 135.592 38.1504 135.807C38.2402 136.018 38.3496 136.191 38.4785 136.328C38.6074 136.465 38.7559 136.566 38.9238 136.633C39.0957 136.695 39.2852 136.727 39.4922 136.727C39.7578 136.727 39.9902 136.676 40.1895 136.574C40.3887 136.473 40.5547 136.314 40.6875 136.1C40.8242 135.881 40.9258 135.602 40.9922 135.262C41.0586 134.918 41.0918 134.508 41.0918 134.031Z" fill="#9E9E9E" />
  <path d="M169.949 127.586V129.373H169.07V127.586H169.949ZM169.844 137.154V138.719H168.971V137.154H169.844ZM171.016 135.303C171.016 135.068 170.963 134.857 170.857 134.67C170.752 134.482 170.578 134.311 170.336 134.154C170.094 133.998 169.77 133.854 169.363 133.721C168.871 133.568 168.445 133.383 168.086 133.164C167.73 132.945 167.455 132.674 167.26 132.35C167.068 132.025 166.973 131.633 166.973 131.172C166.973 130.691 167.076 130.277 167.283 129.93C167.49 129.582 167.783 129.314 168.162 129.127C168.541 128.939 168.986 128.846 169.498 128.846C169.896 128.846 170.252 128.906 170.564 129.027C170.877 129.145 171.141 129.32 171.355 129.555C171.574 129.789 171.74 130.076 171.854 130.416C171.971 130.756 172.029 131.148 172.029 131.594H170.951C170.951 131.332 170.92 131.092 170.857 130.873C170.795 130.654 170.701 130.465 170.576 130.305C170.451 130.141 170.299 130.016 170.119 129.93C169.939 129.84 169.732 129.795 169.498 129.795C169.17 129.795 168.898 129.852 168.684 129.965C168.473 130.078 168.316 130.238 168.215 130.445C168.113 130.648 168.062 130.885 168.062 131.154C168.062 131.404 168.113 131.623 168.215 131.811C168.316 131.998 168.488 132.168 168.73 132.32C168.977 132.469 169.314 132.615 169.744 132.76C170.248 132.92 170.676 133.109 171.027 133.328C171.379 133.543 171.646 133.809 171.83 134.125C172.014 134.438 172.105 134.826 172.105 135.291C172.105 135.795 171.992 136.221 171.766 136.568C171.539 136.912 171.221 137.174 170.811 137.354C170.4 137.533 169.92 137.623 169.369 137.623C169.037 137.623 168.709 137.578 168.385 137.488C168.061 137.398 167.768 137.252 167.506 137.049C167.244 136.842 167.035 136.57 166.879 136.234C166.723 135.895 166.645 135.479 166.645 134.986H167.734C167.734 135.318 167.781 135.594 167.875 135.812C167.973 136.027 168.102 136.199 168.262 136.328C168.422 136.453 168.598 136.543 168.789 136.598C168.984 136.648 169.178 136.674 169.369 136.674C169.721 136.674 170.018 136.619 170.26 136.51C170.506 136.396 170.693 136.236 170.822 136.029C170.951 135.822 171.016 135.58 171.016 135.303ZM177.021 128.922V137.5H175.938V130.275L173.752 131.072V130.094L176.852 128.922H177.021ZM184.369 128.957H184.463V129.877H184.369C183.795 129.877 183.314 129.971 182.928 130.158C182.541 130.342 182.234 130.59 182.008 130.902C181.781 131.211 181.617 131.559 181.516 131.945C181.418 132.332 181.369 132.725 181.369 133.123V134.377C181.369 134.756 181.414 135.092 181.504 135.385C181.594 135.674 181.717 135.918 181.873 136.117C182.029 136.316 182.205 136.467 182.4 136.568C182.6 136.67 182.807 136.721 183.021 136.721C183.271 136.721 183.494 136.674 183.689 136.58C183.885 136.482 184.049 136.348 184.182 136.176C184.318 136 184.422 135.793 184.492 135.555C184.562 135.316 184.598 135.055 184.598 134.77C184.598 134.516 184.566 134.271 184.504 134.037C184.441 133.799 184.346 133.588 184.217 133.404C184.088 133.217 183.926 133.07 183.73 132.965C183.539 132.855 183.311 132.801 183.045 132.801C182.744 132.801 182.463 132.875 182.201 133.023C181.943 133.168 181.73 133.359 181.562 133.598C181.398 133.832 181.305 134.088 181.281 134.365L180.707 134.359C180.762 133.922 180.863 133.549 181.012 133.24C181.164 132.928 181.352 132.674 181.574 132.479C181.801 132.279 182.053 132.135 182.33 132.045C182.611 131.951 182.908 131.904 183.221 131.904C183.646 131.904 184.014 131.984 184.322 132.145C184.631 132.305 184.885 132.52 185.084 132.789C185.283 133.055 185.43 133.355 185.523 133.691C185.621 134.023 185.67 134.365 185.67 134.717C185.67 135.119 185.613 135.496 185.5 135.848C185.387 136.199 185.217 136.508 184.99 136.773C184.768 137.039 184.492 137.246 184.164 137.395C183.836 137.543 183.455 137.617 183.021 137.617C182.561 137.617 182.158 137.523 181.814 137.336C181.471 137.145 181.186 136.891 180.959 136.574C180.732 136.258 180.562 135.906 180.449 135.52C180.336 135.133 180.279 134.74 180.279 134.342V133.832C180.279 133.23 180.34 132.641 180.461 132.062C180.582 131.484 180.791 130.961 181.088 130.492C181.389 130.023 181.805 129.65 182.336 129.373C182.867 129.096 183.545 128.957 184.369 128.957ZM192.725 134.629V135.52H186.561V134.881L190.381 128.969H191.266L190.316 130.68L187.791 134.629H192.725ZM191.535 128.969V137.5H190.451V128.969H191.535ZM194.811 136.211V137.084C194.811 137.439 194.721 137.814 194.541 138.209C194.361 138.607 194.109 138.939 193.785 139.205L193.17 138.777C193.295 138.605 193.4 138.43 193.486 138.25C193.572 138.074 193.637 137.891 193.68 137.699C193.727 137.512 193.75 137.312 193.75 137.102V136.211H194.811ZM201.455 135.191C201.455 135.711 201.334 136.152 201.092 136.516C200.854 136.875 200.529 137.148 200.119 137.336C199.713 137.523 199.254 137.617 198.742 137.617C198.23 137.617 197.77 137.523 197.359 137.336C196.949 137.148 196.625 136.875 196.387 136.516C196.148 136.152 196.029 135.711 196.029 135.191C196.029 134.852 196.094 134.541 196.223 134.26C196.355 133.975 196.541 133.727 196.779 133.516C197.021 133.305 197.307 133.143 197.635 133.029C197.967 132.912 198.332 132.854 198.73 132.854C199.254 132.854 199.721 132.955 200.131 133.158C200.541 133.357 200.863 133.633 201.098 133.984C201.336 134.336 201.455 134.738 201.455 135.191ZM200.365 135.168C200.365 134.852 200.297 134.572 200.16 134.33C200.023 134.084 199.832 133.893 199.586 133.756C199.34 133.619 199.055 133.551 198.73 133.551C198.398 133.551 198.111 133.619 197.869 133.756C197.631 133.893 197.445 134.084 197.312 134.33C197.18 134.572 197.113 134.852 197.113 135.168C197.113 135.496 197.178 135.777 197.307 136.012C197.439 136.242 197.627 136.42 197.869 136.545C198.115 136.666 198.406 136.727 198.742 136.727C199.078 136.727 199.367 136.666 199.609 136.545C199.852 136.42 200.037 136.242 200.166 136.012C200.299 135.777 200.365 135.496 200.365 135.168ZM201.256 131.189C201.256 131.604 201.146 131.977 200.928 132.309C200.709 132.641 200.41 132.902 200.031 133.094C199.652 133.285 199.223 133.381 198.742 133.381C198.254 133.381 197.818 133.285 197.436 133.094C197.057 132.902 196.76 132.641 196.545 132.309C196.33 131.977 196.223 131.604 196.223 131.189C196.223 130.693 196.33 130.271 196.545 129.924C196.764 129.576 197.062 129.311 197.441 129.127C197.82 128.943 198.252 128.852 198.736 128.852C199.225 128.852 199.658 128.943 200.037 129.127C200.416 129.311 200.713 129.576 200.928 129.924C201.146 130.271 201.256 130.693 201.256 131.189ZM200.172 131.207C200.172 130.922 200.111 130.67 199.99 130.451C199.869 130.232 199.701 130.061 199.486 129.936C199.271 129.807 199.021 129.742 198.736 129.742C198.451 129.742 198.201 129.803 197.986 129.924C197.775 130.041 197.609 130.209 197.488 130.428C197.371 130.646 197.312 130.906 197.312 131.207C197.312 131.5 197.371 131.756 197.488 131.975C197.609 132.193 197.777 132.363 197.992 132.484C198.207 132.605 198.457 132.666 198.742 132.666C199.027 132.666 199.275 132.605 199.486 132.484C199.701 132.363 199.869 132.193 199.99 131.975C200.111 131.756 200.172 131.5 200.172 131.207ZM208.416 136.609V137.5H202.832V136.721L205.627 133.609C205.971 133.227 206.236 132.902 206.424 132.637C206.615 132.367 206.748 132.127 206.822 131.916C206.9 131.701 206.939 131.482 206.939 131.26C206.939 130.979 206.881 130.725 206.764 130.498C206.65 130.268 206.482 130.084 206.26 129.947C206.037 129.811 205.768 129.742 205.451 129.742C205.072 129.742 204.756 129.816 204.502 129.965C204.252 130.109 204.064 130.312 203.939 130.574C203.814 130.836 203.752 131.137 203.752 131.477H202.668C202.668 130.996 202.773 130.557 202.984 130.158C203.195 129.76 203.508 129.443 203.922 129.209C204.336 128.971 204.846 128.852 205.451 128.852C205.99 128.852 206.451 128.947 206.834 129.139C207.217 129.326 207.51 129.592 207.713 129.936C207.92 130.275 208.023 130.674 208.023 131.131C208.023 131.381 207.98 131.635 207.895 131.893C207.812 132.146 207.697 132.4 207.549 132.654C207.404 132.908 207.234 133.158 207.039 133.404C206.848 133.65 206.643 133.893 206.424 134.131L204.139 136.609H208.416ZM215.342 134.629V135.52H209.178V134.881L212.998 128.969H213.883L212.934 130.68L210.408 134.629H215.342ZM214.152 128.969V137.5H213.068V128.969H214.152Z" fill="#9E9E9E" />
</svg>