<svg width="216" height="142" viewBox="0 0 216 142" fill="none" xmlns="http://www.w3.org/2000/svg">
  <path d="M0 100.5C0 98.2909 1.79086 96.5 4 96.5H16.4444C18.6536 96.5 20.4444 98.2909 20.4444 100.5V120.5H0V100.5Z" fill="#565656" />
  <path d="M24.4445 62.5C24.4445 60.2909 26.2353 58.5 28.4445 58.5H40.8889C43.098 58.5 44.8889 60.2909 44.8889 62.5V120.5H24.4445V62.5Z" fill="#565656" />
  <path d="M48.8889 32.5C48.8889 30.2909 50.6797 28.5 52.8889 28.5H65.3333C67.5425 28.5 69.3333 30.2909 69.3333 32.5V120.5H48.8889V32.5Z" fill="#565656" />
  <path d="M73.3333 24.5C73.3333 22.2909 75.1242 20.5 77.3333 20.5H89.7778C91.9869 20.5 93.7778 22.2909 93.7778 24.5V120.5H73.3333V24.5Z" fill="#565656" />
  <path d="M97.7778 4.5C97.7778 2.29086 99.5686 0.5 101.778 0.5H114.222C116.431 0.5 118.222 2.29086 118.222 4.5V120.5H97.7778V4.5Z" fill="#0C8CE9" />
  <path d="M122.222 52.5C122.222 50.2909 124.013 48.5 126.222 48.5H138.667C140.876 48.5 142.667 50.2909 142.667 52.5V120.5H122.222V52.5Z" fill="#565656" />
  <path d="M146.667 92.5C146.667 90.2909 148.458 88.5 150.667 88.5H163.111C165.32 88.5 167.111 90.2909 167.111 92.5V120.5H146.667V92.5Z" fill="#565656" />
  <path d="M171.111 112.5C171.111 110.291 172.902 108.5 175.111 108.5H187.556C189.765 108.5 191.556 110.291 191.556 112.5V120.5H171.111V112.5Z" fill="#565656" />
  <path d="M195.556 120.5C195.556 118.291 197.346 116.5 199.556 116.5H212C214.209 116.5 216 118.291 216 120.5H195.556Z" fill="#565656" />
  <path d="M3.94922 127.586V129.373H3.07031V127.586H3.94922ZM3.84375 137.154V138.719H2.9707V137.154H3.84375ZM5.01562 135.303C5.01562 135.068 4.96289 134.857 4.85742 134.67C4.75195 134.482 4.57812 134.311 4.33594 134.154C4.09375 133.998 3.76953 133.854 3.36328 133.721C2.87109 133.568 2.44531 133.383 2.08594 133.164C1.73047 132.945 1.45508 132.674 1.25977 132.35C1.06836 132.025 0.972656 131.633 0.972656 131.172C0.972656 130.691 1.07617 130.277 1.2832 129.93C1.49023 129.582 1.7832 129.314 2.16211 129.127C2.54102 128.939 2.98633 128.846 3.49805 128.846C3.89648 128.846 4.25195 128.906 4.56445 129.027C4.87695 129.145 5.14062 129.32 5.35547 129.555C5.57422 129.789 5.74023 130.076 5.85352 130.416C5.9707 130.756 6.0293 131.148 6.0293 131.594H4.95117C4.95117 131.332 4.91992 131.092 4.85742 130.873C4.79492 130.654 4.70117 130.465 4.57617 130.305C4.45117 130.141 4.29883 130.016 4.11914 129.93C3.93945 129.84 3.73242 129.795 3.49805 129.795C3.16992 129.795 2.89844 129.852 2.68359 129.965C2.47266 130.078 2.31641 130.238 2.21484 130.445C2.11328 130.648 2.0625 130.885 2.0625 131.154C2.0625 131.404 2.11328 131.623 2.21484 131.811C2.31641 131.998 2.48828 132.168 2.73047 132.32C2.97656 132.469 3.31445 132.615 3.74414 132.76C4.24805 132.92 4.67578 133.109 5.02734 133.328C5.37891 133.543 5.64648 133.809 5.83008 134.125C6.01367 134.438 6.10547 134.826 6.10547 135.291C6.10547 135.795 5.99219 136.221 5.76562 136.568C5.53906 136.912 5.2207 137.174 4.81055 137.354C4.40039 137.533 3.91992 137.623 3.36914 137.623C3.03711 137.623 2.70898 137.578 2.38477 137.488C2.06055 137.398 1.76758 137.252 1.50586 137.049C1.24414 136.842 1.03516 136.57 0.878906 136.234C0.722656 135.895 0.644531 135.479 0.644531 134.986H1.73438C1.73438 135.318 1.78125 135.594 1.875 135.812C1.97266 136.027 2.10156 136.199 2.26172 136.328C2.42188 136.453 2.59766 136.543 2.78906 136.598C2.98438 136.648 3.17773 136.674 3.36914 136.674C3.7207 136.674 4.01758 136.619 4.25977 136.51C4.50586 136.396 4.69336 136.236 4.82227 136.029C4.95117 135.822 5.01562 135.58 5.01562 135.303ZM9.04102 132.701H9.81445C10.1934 132.701 10.5059 132.639 10.752 132.514C11.002 132.385 11.1875 132.211 11.3086 131.992C11.4336 131.77 11.4961 131.52 11.4961 131.242C11.4961 130.914 11.4414 130.639 11.332 130.416C11.2227 130.193 11.0586 130.025 10.8398 129.912C10.6211 129.799 10.3438 129.742 10.0078 129.742C9.70312 129.742 9.43359 129.803 9.19922 129.924C8.96875 130.041 8.78711 130.209 8.6543 130.428C8.52539 130.646 8.46094 130.904 8.46094 131.201H7.37695C7.37695 130.768 7.48633 130.373 7.70508 130.018C7.92383 129.662 8.23047 129.379 8.625 129.168C9.02344 128.957 9.48438 128.852 10.0078 128.852C10.5234 128.852 10.9746 128.943 11.3613 129.127C11.748 129.307 12.0488 129.576 12.2637 129.936C12.4785 130.291 12.5859 130.734 12.5859 131.266C12.5859 131.48 12.5352 131.711 12.4336 131.957C12.3359 132.199 12.1816 132.426 11.9707 132.637C11.7637 132.848 11.4941 133.021 11.1621 133.158C10.8301 133.291 10.4316 133.357 9.9668 133.357H9.04102V132.701ZM9.04102 133.592V132.941H9.9668C10.5098 132.941 10.959 133.006 11.3145 133.135C11.6699 133.264 11.9492 133.436 12.1523 133.65C12.3594 133.865 12.5039 134.102 12.5859 134.359C12.6719 134.613 12.7148 134.867 12.7148 135.121C12.7148 135.52 12.6465 135.873 12.5098 136.182C12.377 136.49 12.1875 136.752 11.9414 136.967C11.6992 137.182 11.4141 137.344 11.0859 137.453C10.7578 137.562 10.4004 137.617 10.0137 137.617C9.64258 137.617 9.29297 137.564 8.96484 137.459C8.64062 137.354 8.35352 137.201 8.10352 137.002C7.85352 136.799 7.6582 136.551 7.51758 136.258C7.37695 135.961 7.30664 135.623 7.30664 135.244H8.39062C8.39062 135.541 8.45508 135.801 8.58398 136.023C8.7168 136.246 8.9043 136.42 9.14648 136.545C9.39258 136.666 9.68164 136.727 10.0137 136.727C10.3457 136.727 10.6309 136.67 10.8691 136.557C11.1113 136.439 11.2969 136.264 11.4258 136.029C11.5586 135.795 11.625 135.5 11.625 135.145C11.625 134.789 11.5508 134.498 11.4023 134.271C11.2539 134.041 11.043 133.871 10.7695 133.762C10.5 133.648 10.1816 133.592 9.81445 133.592H9.04102ZM19.5645 132.555V133.855C19.5645 134.555 19.502 135.145 19.377 135.625C19.252 136.105 19.0723 136.492 18.8379 136.785C18.6035 137.078 18.3203 137.291 17.9883 137.424C17.6602 137.553 17.2891 137.617 16.875 137.617C16.5469 137.617 16.2441 137.576 15.9668 137.494C15.6895 137.412 15.4395 137.281 15.2168 137.102C14.998 136.918 14.8105 136.68 14.6543 136.387C14.498 136.094 14.3789 135.738 14.2969 135.32C14.2148 134.902 14.1738 134.414 14.1738 133.855V132.555C14.1738 131.855 14.2363 131.27 14.3613 130.797C14.4902 130.324 14.6719 129.945 14.9062 129.66C15.1406 129.371 15.4219 129.164 15.75 129.039C16.082 128.914 16.4531 128.852 16.8633 128.852C17.1953 128.852 17.5 128.893 17.7773 128.975C18.0586 129.053 18.3086 129.18 18.5273 129.355C18.7461 129.527 18.9316 129.758 19.084 130.047C19.2402 130.332 19.3594 130.682 19.4414 131.096C19.5234 131.51 19.5645 131.996 19.5645 132.555ZM18.4746 134.031V132.373C18.4746 131.99 18.4512 131.654 18.4043 131.365C18.3613 131.072 18.2969 130.822 18.2109 130.615C18.125 130.408 18.0156 130.24 17.8828 130.111C17.7539 129.982 17.6035 129.889 17.4316 129.83C17.2637 129.768 17.0742 129.736 16.8633 129.736C16.6055 129.736 16.377 129.785 16.1777 129.883C15.9785 129.977 15.8105 130.127 15.6738 130.334C15.541 130.541 15.4395 130.812 15.3691 131.148C15.2988 131.484 15.2637 131.893 15.2637 132.373V134.031C15.2637 134.414 15.2852 134.752 15.3281 135.045C15.375 135.338 15.4434 135.592 15.5332 135.807C15.623 136.018 15.7324 136.191 15.8613 136.328C15.9902 136.465 16.1387 136.566 16.3066 136.633C16.4785 136.695 16.668 136.727 16.875 136.727C17.1406 136.727 17.373 136.676 17.5723 136.574C17.7715 136.473 17.9375 136.314 18.0703 136.1C18.207 135.881 18.3086 135.602 18.375 135.262C18.4414 134.918 18.4746 134.508 18.4746 134.031ZM26.3145 132.555V133.855C26.3145 134.555 26.252 135.145 26.127 135.625C26.002 136.105 25.8223 136.492 25.5879 136.785C25.3535 137.078 25.0703 137.291 24.7383 137.424C24.4102 137.553 24.0391 137.617 23.625 137.617C23.2969 137.617 22.9941 137.576 22.7168 137.494C22.4395 137.412 22.1895 137.281 21.9668 137.102C21.748 136.918 21.5605 136.68 21.4043 136.387C21.248 136.094 21.1289 135.738 21.0469 135.32C20.9648 134.902 20.9238 134.414 20.9238 133.855V132.555C20.9238 131.855 20.9863 131.27 21.1113 130.797C21.2402 130.324 21.4219 129.945 21.6562 129.66C21.8906 129.371 22.1719 129.164 22.5 129.039C22.832 128.914 23.2031 128.852 23.6133 128.852C23.9453 128.852 24.25 128.893 24.5273 128.975C24.8086 129.053 25.0586 129.18 25.2773 129.355C25.4961 129.527 25.6816 129.758 25.834 130.047C25.9902 130.332 26.1094 130.682 26.1914 131.096C26.2734 131.51 26.3145 131.996 26.3145 132.555ZM25.2246 134.031V132.373C25.2246 131.99 25.2012 131.654 25.1543 131.365C25.1113 131.072 25.0469 130.822 24.9609 130.615C24.875 130.408 24.7656 130.24 24.6328 130.111C24.5039 129.982 24.3535 129.889 24.1816 129.83C24.0137 129.768 23.8242 129.736 23.6133 129.736C23.3555 129.736 23.127 129.785 22.9277 129.883C22.7285 129.977 22.5605 130.127 22.4238 130.334C22.291 130.541 22.1895 130.812 22.1191 131.148C22.0488 131.484 22.0137 131.893 22.0137 132.373V134.031C22.0137 134.414 22.0352 134.752 22.0781 135.045C22.125 135.338 22.1934 135.592 22.2832 135.807C22.373 136.018 22.4824 136.191 22.6113 136.328C22.7402 136.465 22.8887 136.566 23.0566 136.633C23.2285 136.695 23.418 136.727 23.625 136.727C23.8906 136.727 24.123 136.676 24.3223 136.574C24.5215 136.473 24.6875 136.314 24.8203 136.1C24.957 135.881 25.0586 135.602 25.125 135.262C25.1914 134.918 25.2246 134.508 25.2246 134.031Z" fill="#9E9E9E" />
  <path d="M182.949 127.586V129.373H182.07V127.586H182.949ZM182.844 137.154V138.719H181.971V137.154H182.844ZM184.016 135.303C184.016 135.068 183.963 134.857 183.857 134.67C183.752 134.482 183.578 134.311 183.336 134.154C183.094 133.998 182.77 133.854 182.363 133.721C181.871 133.568 181.445 133.383 181.086 133.164C180.73 132.945 180.455 132.674 180.26 132.35C180.068 132.025 179.973 131.633 179.973 131.172C179.973 130.691 180.076 130.277 180.283 129.93C180.49 129.582 180.783 129.314 181.162 129.127C181.541 128.939 181.986 128.846 182.498 128.846C182.896 128.846 183.252 128.906 183.564 129.027C183.877 129.145 184.141 129.32 184.355 129.555C184.574 129.789 184.74 130.076 184.854 130.416C184.971 130.756 185.029 131.148 185.029 131.594H183.951C183.951 131.332 183.92 131.092 183.857 130.873C183.795 130.654 183.701 130.465 183.576 130.305C183.451 130.141 183.299 130.016 183.119 129.93C182.939 129.84 182.732 129.795 182.498 129.795C182.17 129.795 181.898 129.852 181.684 129.965C181.473 130.078 181.316 130.238 181.215 130.445C181.113 130.648 181.062 130.885 181.062 131.154C181.062 131.404 181.113 131.623 181.215 131.811C181.316 131.998 181.488 132.168 181.73 132.32C181.977 132.469 182.314 132.615 182.744 132.76C183.248 132.92 183.676 133.109 184.027 133.328C184.379 133.543 184.646 133.809 184.83 134.125C185.014 134.438 185.105 134.826 185.105 135.291C185.105 135.795 184.992 136.221 184.766 136.568C184.539 136.912 184.221 137.174 183.811 137.354C183.4 137.533 182.92 137.623 182.369 137.623C182.037 137.623 181.709 137.578 181.385 137.488C181.061 137.398 180.768 137.252 180.506 137.049C180.244 136.842 180.035 136.57 179.879 136.234C179.723 135.895 179.645 135.479 179.645 134.986H180.734C180.734 135.318 180.781 135.594 180.875 135.812C180.973 136.027 181.102 136.199 181.262 136.328C181.422 136.453 181.598 136.543 181.789 136.598C181.984 136.648 182.178 136.674 182.369 136.674C182.721 136.674 183.018 136.619 183.26 136.51C183.506 136.396 183.693 136.236 183.822 136.029C183.951 135.822 184.016 135.58 184.016 135.303ZM190.021 128.922V137.5H188.938V130.275L186.752 131.072V130.094L189.852 128.922H190.021ZM194.311 136.211V137.084C194.311 137.439 194.221 137.814 194.041 138.209C193.861 138.607 193.609 138.939 193.285 139.205L192.67 138.777C192.795 138.605 192.9 138.43 192.986 138.25C193.072 138.074 193.137 137.891 193.18 137.699C193.227 137.512 193.25 137.312 193.25 137.102V136.211H194.311ZM196.947 133.439L196.08 133.217L196.508 128.969H200.885V129.971H197.428L197.17 132.291C197.326 132.201 197.523 132.117 197.762 132.039C198.004 131.961 198.281 131.922 198.594 131.922C198.988 131.922 199.342 131.99 199.654 132.127C199.967 132.26 200.232 132.451 200.451 132.701C200.674 132.951 200.844 133.252 200.961 133.604C201.078 133.955 201.137 134.348 201.137 134.781C201.137 135.191 201.08 135.568 200.967 135.912C200.857 136.256 200.691 136.557 200.469 136.814C200.246 137.068 199.965 137.266 199.625 137.406C199.289 137.547 198.893 137.617 198.436 137.617C198.092 137.617 197.766 137.57 197.457 137.477C197.152 137.379 196.879 137.232 196.637 137.037C196.398 136.838 196.203 136.592 196.051 136.299C195.902 136.002 195.809 135.654 195.77 135.256H196.801C196.848 135.576 196.941 135.846 197.082 136.064C197.223 136.283 197.406 136.449 197.633 136.562C197.863 136.672 198.131 136.727 198.436 136.727C198.693 136.727 198.922 136.682 199.121 136.592C199.32 136.502 199.488 136.373 199.625 136.205C199.762 136.037 199.865 135.834 199.936 135.596C200.01 135.357 200.047 135.09 200.047 134.793C200.047 134.523 200.01 134.273 199.936 134.043C199.861 133.812 199.75 133.611 199.602 133.439C199.457 133.268 199.279 133.135 199.068 133.041C198.857 132.943 198.615 132.895 198.342 132.895C197.979 132.895 197.703 132.943 197.516 133.041C197.332 133.139 197.143 133.271 196.947 133.439ZM207.682 132.555V133.855C207.682 134.555 207.619 135.145 207.494 135.625C207.369 136.105 207.189 136.492 206.955 136.785C206.721 137.078 206.438 137.291 206.105 137.424C205.777 137.553 205.406 137.617 204.992 137.617C204.664 137.617 204.361 137.576 204.084 137.494C203.807 137.412 203.557 137.281 203.334 137.102C203.115 136.918 202.928 136.68 202.771 136.387C202.615 136.094 202.496 135.738 202.414 135.32C202.332 134.902 202.291 134.414 202.291 133.855V132.555C202.291 131.855 202.354 131.27 202.479 130.797C202.607 130.324 202.789 129.945 203.023 129.66C203.258 129.371 203.539 129.164 203.867 129.039C204.199 128.914 204.57 128.852 204.98 128.852C205.312 128.852 205.617 128.893 205.895 128.975C206.176 129.053 206.426 129.18 206.645 129.355C206.863 129.527 207.049 129.758 207.201 130.047C207.357 130.332 207.477 130.682 207.559 131.096C207.641 131.51 207.682 131.996 207.682 132.555ZM206.592 134.031V132.373C206.592 131.99 206.568 131.654 206.521 131.365C206.479 131.072 206.414 130.822 206.328 130.615C206.242 130.408 206.133 130.24 206 130.111C205.871 129.982 205.721 129.889 205.549 129.83C205.381 129.768 205.191 129.736 204.98 129.736C204.723 129.736 204.494 129.785 204.295 129.883C204.096 129.977 203.928 130.127 203.791 130.334C203.658 130.541 203.557 130.812 203.486 131.148C203.416 131.484 203.381 131.893 203.381 132.373V134.031C203.381 134.414 203.402 134.752 203.445 135.045C203.492 135.338 203.561 135.592 203.65 135.807C203.74 136.018 203.85 136.191 203.979 136.328C204.107 136.465 204.256 136.566 204.424 136.633C204.596 136.695 204.785 136.727 204.992 136.727C205.258 136.727 205.49 136.676 205.689 136.574C205.889 136.473 206.055 136.314 206.188 136.1C206.324 135.881 206.426 135.602 206.492 135.262C206.559 134.918 206.592 134.508 206.592 134.031ZM214.432 132.555V133.855C214.432 134.555 214.369 135.145 214.244 135.625C214.119 136.105 213.939 136.492 213.705 136.785C213.471 137.078 213.188 137.291 212.855 137.424C212.527 137.553 212.156 137.617 211.742 137.617C211.414 137.617 211.111 137.576 210.834 137.494C210.557 137.412 210.307 137.281 210.084 137.102C209.865 136.918 209.678 136.68 209.521 136.387C209.365 136.094 209.246 135.738 209.164 135.32C209.082 134.902 209.041 134.414 209.041 133.855V132.555C209.041 131.855 209.104 131.27 209.229 130.797C209.357 130.324 209.539 129.945 209.773 129.66C210.008 129.371 210.289 129.164 210.617 129.039C210.949 128.914 211.32 128.852 211.73 128.852C212.062 128.852 212.367 128.893 212.645 128.975C212.926 129.053 213.176 129.18 213.395 129.355C213.613 129.527 213.799 129.758 213.951 130.047C214.107 130.332 214.227 130.682 214.309 131.096C214.391 131.51 214.432 131.996 214.432 132.555ZM213.342 134.031V132.373C213.342 131.99 213.318 131.654 213.271 131.365C213.229 131.072 213.164 130.822 213.078 130.615C212.992 130.408 212.883 130.24 212.75 130.111C212.621 129.982 212.471 129.889 212.299 129.83C212.131 129.768 211.941 129.736 211.73 129.736C211.473 129.736 211.244 129.785 211.045 129.883C210.846 129.977 210.678 130.127 210.541 130.334C210.408 130.541 210.307 130.812 210.236 131.148C210.166 131.484 210.131 131.893 210.131 132.373V134.031C210.131 134.414 210.152 134.752 210.195 135.045C210.242 135.338 210.311 135.592 210.4 135.807C210.49 136.018 210.6 136.191 210.729 136.328C210.857 136.465 211.006 136.566 211.174 136.633C211.346 136.695 211.535 136.727 211.742 136.727C212.008 136.727 212.24 136.676 212.439 136.574C212.639 136.473 212.805 136.314 212.938 136.1C213.074 135.881 213.176 135.602 213.242 135.262C213.309 134.918 213.342 134.508 213.342 134.031Z" fill="#9E9E9E" />
</svg>