<svg width="24" height="24" viewBox="0 0 24 24" fill="none" xmlns="http://www.w3.org/2000/svg">
<path d="M10.0801 15.5933L8.33013 18.6244M10.4084 10.739C10.278 10.9645 10.0861 11.1485 9.85407 11.2701C9.6221 11.3918 9.3593 11.4464 9.09522 11.4277L7.67913 11.3376C7.41506 11.319 7.15226 11.3736 6.92028 11.4952C6.68831 11.6169 6.49635 11.8008 6.366 12.0263L6.1 12.487C6.00717 12.6478 5.98332 12.8396 6.03369 13.0203C6.08406 13.201 6.20453 13.3557 6.36859 13.4504L13.7917 17.7361C13.9557 17.8308 14.1499 17.8578 14.3316 17.8111C14.5132 17.7644 14.6674 17.6478 14.7603 17.487L15.0263 17.0263C15.1564 16.8007 15.2197 16.5425 15.209 16.2808C15.1984 16.019 15.1143 15.7641 14.9661 15.5448L14.18 14.3635C14.0319 14.1441 13.9477 13.8892 13.9371 13.6275C13.9265 13.3657 13.9898 13.1075 14.1199 12.8819L15.4359 10.6025C15.5287 10.4417 15.6829 10.3252 15.8646 10.2785C16.0462 10.2318 16.2404 10.2587 16.4045 10.3534C16.7326 10.5429 17.121 10.5968 17.4843 10.5034C17.8476 10.41 18.156 10.1769 18.3417 9.85529C18.5273 9.53373 18.575 9.15009 18.4743 8.78876C18.3735 8.42743 18.1326 8.11801 17.8045 7.92857L12.8558 5.07143C12.5276 4.88199 12.1392 4.82805 11.7759 4.92147C11.4126 5.01489 11.1042 5.24802 10.9186 5.56958C10.7329 5.89114 10.6852 6.27478 10.786 6.63611C10.8867 6.99744 11.1276 7.30686 11.4558 7.4963C11.6198 7.59102 11.7403 7.74573 11.7907 7.92639C11.841 8.10706 11.8172 8.29888 11.7244 8.45966L10.4084 10.739Z" stroke="#C3C3C3" stroke-linecap="round" stroke-linejoin="round"/>
</svg>
