<svg width="24" height="24" viewBox="0 0 24 24" fill="none" xmlns="http://www.w3.org/2000/svg">
<path d="M16.7895 8.88889V6.72222C16.7895 6.53068 16.7118 6.34698 16.5737 6.21153C16.4355 6.07609 16.2481 6 16.0526 6H6.47368C6.08284 6 5.708 6.15218 5.43163 6.42307C5.15526 6.69395 5 7.06135 5 7.44444M5 7.44444C5 7.82753 5.15526 8.19494 5.43163 8.46582C5.708 8.73671 6.08284 8.88889 6.47368 8.88889H17.5263C17.7217 8.88889 17.9092 8.96498 18.0473 9.10042C18.1855 9.23587 18.2632 9.41957 18.2632 9.61111V12.5M5 7.44444V17.5556C5 17.9386 5.15526 18.306 5.43163 18.5769C5.708 18.8478 6.08284 19 6.47368 19H17.5263C17.7217 19 17.9092 18.9239 18.0473 18.7885C18.1855 18.653 18.2632 18.4693 18.2632 18.2778V15.3889M18.2632 12.5H16.0526C15.6618 12.5 15.2869 12.6522 15.0106 12.9231C14.7342 13.194 14.5789 13.5614 14.5789 13.9444C14.5789 14.3275 14.7342 14.6949 15.0106 14.9658C15.2869 15.2367 15.6618 15.3889 16.0526 15.3889H18.2632M18.2632 12.5C18.4586 12.5 18.646 12.5761 18.7842 12.7115C18.9224 12.847 19 13.0307 19 13.2222V14.6667C19 14.8582 18.9224 15.0419 18.7842 15.1774C18.646 15.3128 18.4586 15.3889 18.2632 15.3889" stroke="#C3C3C3" stroke-linecap="round" stroke-linejoin="round"/>
</svg>
