<svg width="24" height="24" viewBox="0 0 24 24" fill="none" xmlns="http://www.w3.org/2000/svg">
<path d="M19.2 10.2001C19.2 14.6938 14.2148 19.3739 12.5408 20.8193C12.3849 20.9366 12.195 21 11.9999 21C11.8048 21 11.6149 20.9366 11.459 20.8193C9.78497 19.3739 4.7998 14.6938 4.7998 10.2001C4.7998 8.29051 5.55838 6.45914 6.90866 5.10886C8.25894 3.75858 10.0903 3 11.9999 3C13.9095 3 15.7408 3.75858 17.0911 5.10886C18.4414 6.45914 19.2 8.29051 19.2 10.2001Z" stroke="#C3C3C3" stroke-linecap="round" stroke-linejoin="round"/>
<path d="M11.9999 12.9001C13.4911 12.9001 14.6999 11.6913 14.6999 10.2001C14.6999 8.7089 13.4911 7.50006 11.9999 7.50006C10.5087 7.50006 9.29986 8.7089 9.29986 10.2001C9.29986 11.6913 10.5087 12.9001 11.9999 12.9001Z" stroke="#C3C3C3" stroke-linecap="round" stroke-linejoin="round"/>
</svg>
