<svg width="24" height="24" viewBox="0 0 24 24" fill="none" xmlns="http://www.w3.org/2000/svg">
<path d="M12 12.7778H12.008M15.2 8.11111V6.55556C15.2 6.143 15.0314 5.74733 14.7314 5.45561C14.4313 5.16389 14.0243 5 13.6 5H10.4C9.97565 5 9.56869 5.16389 9.26863 5.45561C8.96857 5.74733 8.8 6.143 8.8 6.55556V8.11111M20 13.5556C17.6262 15.0792 14.8444 15.8915 12 15.8915C9.15556 15.8915 6.37377 15.0792 4 13.5556M5.6 8.11111H18.4C19.2837 8.11111 20 8.80756 20 9.66667V17.4444C20 18.3036 19.2837 19 18.4 19H5.6C4.71634 19 4 18.3036 4 17.4444V9.66667C4 8.80756 4.71634 8.11111 5.6 8.11111Z" stroke="#C3C3C3" stroke-linecap="round" stroke-linejoin="round"/>
</svg>
